<?xml version="1.0" standalone="no"?>
<!DOCTYPE svg PUBLIC "-//W3C//DTD SVG 20010904//EN"
 "http://www.w3.org/TR/2001/REC-SVG-20010904/DTD/svg10.dtd">
<svg version="1.0" xmlns="http://www.w3.org/2000/svg"
 width="242.000000pt" height="48.000000pt" viewBox="0 0 242.000000 48.000000"
 preserveAspectRatio="xMidYMid meet">

<g transform="translate(0.000000,48.000000) scale(0.100000,-0.100000)"
fill="#FFF" stroke="none">
<path d="M2030 415 c-7 -9 -13 -36 -12 -60 0 -34 -4 -46 -18 -50 -35 -11 -70
-46 -70 -70 0 -24 35 -59 70 -70 15 -5 18 -15 17 -49 -1 -24 4 -50 12 -60 18
-21 70 -20 100 3 24 18 25 18 55 0 38 -23 79 -24 97 -2 8 9 14 36 13 59 -1 33
3 45 17 49 34 11 69 46 69 70 0 24 -35 59 -70 70 -15 5 -18 15 -17 49 1 24 -4
50 -12 60 -18 21 -59 20 -95 -3 -28 -19 -29 -19 -60 0 -38 23 -79 25 -96 4z
m230 -25 c6 -11 8 -31 4 -46 -6 -22 -10 -25 -33 -19 -24 6 -51 30 -51 46 0 5
56 38 67 39 1 0 7 -9 13 -20z m-145 -6 c23 -15 23 -17 7 -34 -9 -10 -29 -21
-43 -25 -22 -6 -27 -3 -33 18 -13 54 20 73 69 41z m50 -44 c3 -5 -1 -10 -10
-10 -9 0 -13 5 -10 10 3 6 8 10 10 10 2 0 7 -4 10 -10z m48 -72 c17 -30 17
-33 0 -65 -15 -29 -22 -33 -58 -33 -37 0 -43 4 -57 33 -14 29 -14 35 0 65 14
28 20 32 56 32 36 0 43 -4 59 -32z m-133 18 c0 -3 -4 -8 -10 -11 -5 -3 -10 -1
-10 4 0 6 5 11 10 11 6 0 10 -2 10 -4z m170 -6 c0 -5 -2 -10 -4 -10 -3 0 -8 5
-11 10 -3 6 -1 10 4 10 6 0 11 -4 11 -10z m-211 -22 c10 -27 3 -58 -15 -65
-16 -6 -64 25 -64 43 0 12 44 43 63 44 4 0 11 -10 16 -22z m281 7 c17 -9 30
-22 30 -29 0 -18 -48 -49 -64 -43 -18 7 -25 38 -15 65 10 26 12 26 49 7z
m-240 -86 c0 -6 -4 -7 -10 -4 -5 3 -10 11 -10 16 0 6 5 7 10 4 6 -3 10 -11 10
-16z m170 11 c0 -5 -5 -10 -11 -10 -5 0 -7 5 -4 10 3 6 8 10 11 10 2 0 4 -4 4
-10z m-128 -71 c19 -20 12 -30 -35 -48 -22 -9 -28 -7 -37 9 -6 11 -8 31 -4 45
5 21 10 24 33 19 14 -4 34 -15 43 -25z m144 7 c13 -53 -24 -75 -69 -41 -29 21
0 59 50 64 7 0 15 -10 19 -23z m-96 10 c0 -11 -19 -15 -25 -6 -3 5 1 10 9 10
9 0 16 -2 16 -4z"/>
<path d="M2125 267 c-23 -17 -14 -63 15 -72 48 -15 85 51 41 75 -26 13 -33 13
-56 -3z"/>
<path d="M620 245 l0 -165 30 0 30 0 0 64 c0 73 6 96 26 96 11 0 14 -18 14
-80 l0 -80 35 0 35 0 0 99 c0 77 -4 103 -16 115 -20 20 -48 20 -64 1 -23 -28
-30 -16 -30 50 l0 65 -30 0 -30 0 0 -165z"/>
<path d="M1820 245 l0 -165 35 0 35 0 0 165 0 165 -35 0 -35 0 0 -165z"/>
<path d="M70 355 c0 -31 3 -35 25 -35 l25 0 0 -120 0 -120 35 0 35 0 0 120 0
120 25 0 c22 0 25 4 25 35 l0 35 -85 0 -85 0 0 -35z"/>
<path d="M830 355 c0 -31 3 -35 25 -35 l25 0 0 -120 0 -120 35 0 35 0 0 120 0
120 25 0 c22 0 25 4 25 35 l0 35 -85 0 -85 0 0 -35z"/>
<path d="M294 300 c-42 -17 -61 -114 -35 -179 13 -29 47 -51 80 -51 24 0 71
37 71 56 0 17 -41 19 -57 3 -16 -16 -43 -3 -43 21 0 18 6 20 55 20 52 0 55 1
55 25 0 43 -27 94 -55 105 -31 12 -43 12 -71 0z m60 -56 c10 -27 7 -34 -19
-34 -18 0 -25 5 -25 18 0 34 33 45 44 16z"/>
<path d="M491 291 c-64 -64 -35 -221 39 -221 36 0 50 12 50 41 0 22 -5 29 -20
29 -12 0 -25 10 -32 25 -15 33 3 75 32 75 15 0 20 7 20 29 0 44 -54 57 -89 22z"/>
<path d="M1110 290 c-16 -16 -20 -17 -20 -5 0 10 -10 15 -30 15 l-30 0 0 -110
0 -110 30 0 30 0 0 61 c0 69 12 99 40 99 16 0 20 7 20 35 0 40 -11 44 -40 15z"/>
<path d="M1216 291 c-40 -44 -42 -147 -4 -196 23 -29 44 -32 70 -8 11 9 18 11
18 5 0 -7 15 -12 35 -12 l35 0 0 110 0 110 -35 0 c-20 0 -35 -5 -35 -12 0 -6
-7 -4 -18 5 -24 22 -45 21 -66 -2z m82 -95 c4 -57 -12 -81 -34 -52 -25 35 -15
110 15 104 12 -2 17 -17 19 -52z"/>
<path d="M1644 300 c-42 -17 -61 -114 -35 -179 13 -29 47 -51 80 -51 24 0 71
37 71 56 0 17 -41 19 -57 3 -16 -16 -43 -3 -43 21 0 18 6 20 55 20 52 0 55 1
55 25 0 43 -27 94 -55 105 -31 12 -43 12 -71 0z m60 -56 c10 -27 7 -34 -19
-34 -18 0 -25 5 -25 18 0 34 33 45 44 16z"/>
<path d="M1400 293 c0 -4 14 -53 30 -107 17 -55 30 -101 30 -103 0 -1 14 -3
30 -3 17 0 30 2 30 3 0 2 13 48 30 103 16 54 30 103 30 107 0 5 -15 7 -32 5
-31 -3 -34 -6 -42 -50 -5 -27 -13 -48 -17 -48 -4 0 -11 21 -15 48 -8 44 -11
47 -42 50 -17 2 -32 0 -32 -5z"/>
</g>
</svg>
